<svg width="32" height="32" viewBox="0 0 32 32" fill="none" xmlns="http://www.w3.org/2000/svg">
<path d="M12.0937 28.7061C12.421 30.6148 14.0635 32 15.9993 32C17.9355 32 19.5786 30.6148 19.9059 28.7061L19.9259 28.5898H12.0737L12.0937 28.7061Z" fill="#BABABA"/>
<path d="M29.3614 23.2488C29.041 22.9283 28.7146 22.6572 28.3987 22.3949C27.0705 21.2919 25.9232 20.3394 25.9232 16.3844V13.2473C25.9232 8.63431 22.6821 4.58656 18.1976 3.57169C18.3774 3.21919 18.4685 2.84869 18.4685 2.46825C18.4685 1.10738 17.3611 0 15.9997 0C14.6387 0 13.5314 1.10738 13.5314 2.46825C13.5314 2.84894 13.6224 3.21937 13.8023 3.57169C9.31762 4.58656 6.07669 8.63431 6.07669 13.2473V16.3844C6.07669 20.3394 4.92944 21.292 3.60119 22.3949C3.28544 22.6572 2.95894 22.9283 2.63856 23.2488L2.60944 23.2779V26.3902H29.3904V23.2779L29.3614 23.2488Z" fill="#BABABA"/>
</svg>
