<svg width="28" height="25" viewBox="0 0 28 25" fill="none" xmlns="http://www.w3.org/2000/svg">
<path d="M6 5.67067V4.5C6 3.70435 6.31607 2.94129 6.87868 2.37868C7.44129 1.81607 8.20435 1.5 9 1.5H19C19.7956 1.5 20.5587 1.81607 21.1213 2.37868C21.6839 2.94129 22 3.70435 22 4.5V5.67067M6 5.67067C6.31333 5.56 6.64933 5.5 7 5.5H21C21.3507 5.5 21.6867 5.56 22 5.67067M6 5.67067C5.41495 5.87751 4.90844 6.26069 4.55025 6.76741C4.19206 7.27413 3.99981 7.87946 4 8.5V9.67067M22 5.67067C22.585 5.87751 23.0916 6.26069 23.4498 6.76741C23.8079 7.27413 24.0002 7.87946 24 8.5V9.67067M4 9.67067C4.31333 9.56 4.64933 9.5 5 9.5H23C23.3406 9.49961 23.6788 9.55732 24 9.67067M4 9.67067C2.83467 10.0827 2 11.1933 2 12.5V20.5C2 21.2957 2.31607 22.0587 2.87868 22.6213C3.44129 23.1839 4.20435 23.5 5 23.5H23C23.7957 23.5 24.5587 23.1839 25.1213 22.6213C25.6839 22.0587 26 21.2957 26 20.5V12.5C26.0002 11.8795 25.8079 11.2741 25.4498 10.7674C25.0916 10.2607 24.585 9.87751 24 9.67067" stroke="#2496FF" stroke-width="2.5" stroke-linecap="round" stroke-linejoin="round"/>
</svg>
