<svg width="22" height="22" viewBox="0 0 22 22" fill="none" xmlns="http://www.w3.org/2000/svg">
<path d="M15.4704 3.86213L17.1574 2.17413C17.509 1.82245 17.986 1.62488 18.4834 1.62488C18.9807 1.62488 19.4577 1.82245 19.8094 2.17413C20.161 2.5258 20.3586 3.00278 20.3586 3.50013C20.3586 3.99747 20.161 4.47445 19.8094 4.82613L9.19037 15.4451C8.66169 15.9735 8.00973 16.3618 7.29337 16.5751L4.60837 17.3751L5.40837 14.6901C5.62165 13.9738 6.01 13.3218 6.53837 12.7931L15.4704 3.86213ZM15.4704 3.86213L18.1084 6.50012M16.6084 13.3751V18.1251C16.6084 18.7219 16.3713 19.2942 15.9494 19.7161C15.5274 20.1381 14.9551 20.3751 14.3584 20.3751H3.85837C3.26163 20.3751 2.68933 20.1381 2.26738 19.7161C1.84542 19.2942 1.60837 18.7219 1.60837 18.1251V7.62512C1.60837 7.02839 1.84542 6.45609 2.26738 6.03413C2.68933 5.61218 3.26163 5.37513 3.85837 5.37513H8.60837" stroke="#606060" stroke-width="1.5" stroke-linecap="round" stroke-linejoin="round"/>
</svg>
