<svg width="22" height="18" viewBox="0 0 22 18" fill="none" xmlns="http://www.w3.org/2000/svg">
<path d="M10.6416 6.75L12.8916 9M12.8916 9L15.1416 11.25M12.8916 9L15.1416 6.75M12.8916 9L10.6416 11.25M8.06162 16.17L1.68762 9.795C1.47695 9.58406 1.35861 9.29813 1.35861 9C1.35861 8.70187 1.47695 8.41594 1.68762 8.205L8.06162 1.83C8.27162 1.619 8.55862 1.5 8.85662 1.5H18.1416C18.7384 1.5 19.3107 1.73705 19.7326 2.15901C20.1546 2.58097 20.3916 3.15326 20.3916 3.75V14.25C20.3916 14.8467 20.1546 15.419 19.7326 15.841C19.3107 16.2629 18.7384 16.5 18.1416 16.5H8.85762C8.55962 16.5 8.27162 16.381 8.06162 16.17Z" stroke="#606060" stroke-width="1.5" stroke-linecap="round" stroke-linejoin="round"/>
</svg>
